<svg xmlns="http://www.w3.org/2000/svg" height="512" width="512"><rect width="100%" height="100%" fill="none"/><g class="currentLayer"><g class="selected" fill="#fff"><path d="M310.217 93.67c4.497 0 8.832 1.323 12.538 3.826a7.503 7.503 0 0 0 8.399-12.433 37.265 37.265 0 0 0-20.937-6.398c-20.643 0-37.438 16.795-37.438 37.438s16.795 37.439 37.438 37.439c8.251 0 15.658-2.713 21.42-7.844a31.69 31.69 0 0 0 3.189-3.289 7.504 7.504 0 0 0-11.499-9.64c-.519.619-1.081 1.2-1.67 1.724-3.013 2.683-6.862 4.044-11.44 4.044-12.37 0-22.434-10.064-22.434-22.434 0-12.369 10.064-22.433 22.434-22.433zm74.686 59.871h.06c3.765-.025 7.11-2.437 8.339-6.053l19.549-58.846a7.503 7.503 0 0 0-14.24-4.731l-13.836 41.649-14.528-41.853a7.5 7.5 0 0 0-9.548-4.627 7.502 7.502 0 0 0-4.627 9.547l20.488 59.023a8.86 8.86 0 0 0 8.343 5.891zm26.016 90.394H270.214a7.502 7.502 0 0 0 0 15.004h140.705a7.502 7.502 0 0 0 0-15.004zm-140.705 61.024h70.353c4.143 0 7.502-3.358 7.502-7.502s-3.359-7.502-7.502-7.502h-70.353c-4.143 0-7.502 3.358-7.502 7.502s3.359 7.502 7.502 7.502zm140.705 31.015H270.214c-4.143 0-7.502 3.358-7.502 7.502s3.359 7.502 7.502 7.502h140.705a7.502 7.502 0 0 0 0-15.004zm7.503 53.522a7.502 7.502 0 0 0-7.502-7.502H270.214c-4.143 0-7.502 3.358-7.502 7.502s3.359 7.502 7.502 7.502h140.705a7.501 7.501 0 0 0 7.503-7.502zm-148.208 39.746c-4.143 0-7.502 3.358-7.502 7.502s3.359 7.502 7.502 7.502h70.353a7.502 7.502 0 0 0 0-15.004zm140.705-231.327H270.214a7.502 7.502 0 0 0 0 15.004h140.705a7.502 7.502 0 0 0 0-15.004z"/><path d="M450.916 105.271a7.502 7.502 0 0 0 7.502-7.502V28.711C458.419 12.88 445.539 0 429.707 0H82.293C66.461 0 53.581 12.88 53.581 28.711v454.577c0 15.831 12.88 28.711 28.712 28.711h347.413c15.832 0 28.712-12.88 28.712-28.711V132.843a7.502 7.502 0 1 0-15.004 0v350.446c0 7.558-6.149 13.707-13.707 13.707H238.494V15.005h191.212c7.558 0 13.707 6.148 13.707 13.707V97.77a7.503 7.503 0 0 0 7.503 7.501zM223.489 496.995H82.293c-7.558 0-13.707-6.148-13.707-13.707V28.711c0-7.558 6.149-13.707 13.707-13.707h141.196z"/><path d="M146.133 175.586c32.697 0 59.483-26.623 59.483-59.483 0-32.799-26.684-59.483-59.483-59.483S86.65 83.304 86.65 116.103c0 32.82 26.746 59.483 59.483 59.483zm0-15.005c-9.72 0-18.714-3.143-26.04-8.453 3.123-6.322 8.521-11.396 15.059-14.091 3.336 1.569 7.057 2.451 10.981 2.451s7.645-.882 10.981-2.451c6.538 2.695 11.936 7.769 15.059 14.091-7.325 5.311-16.32 8.453-26.04 8.453zm-10.89-45.988c0-6.006 4.885-10.891 10.891-10.891 6.005 0 10.891 4.885 10.891 10.891 0 6.005-4.885 10.89-10.891 10.89s-10.891-4.885-10.891-10.89zm10.89-42.968c24.526 0 44.478 19.953 44.478 44.478a44.222 44.222 0 0 1-7.567 24.79 43.695 43.695 0 0 0-14.256-13.774 25.734 25.734 0 0 0 3.241-12.526c0-14.279-11.617-25.896-25.896-25.896s-25.896 11.617-25.896 25.896c0 4.542 1.179 8.811 3.241 12.526a43.676 43.676 0 0 0-14.256 13.774 44.222 44.222 0 0 1-7.567-24.79c0-24.525 19.953-44.478 44.478-44.478zm-43.47 213.597h86.94c8.935 0 16.204-7.269 16.204-16.203v-21.435c0-8.935-7.269-16.203-16.204-16.203h-86.94c-8.935 0-16.204 7.269-16.204 16.203v21.435c0 8.934 7.269 16.203 16.204 16.203zm-1.199-37.638a1.2 1.2 0 0 1 1.199-1.199h86.94a1.2 1.2 0 0 1 1.199 1.199v21.435a1.2 1.2 0 0 1-1.199 1.199h-86.94a1.2 1.2 0 0 1-1.199-1.199zm1.199 117.15h7.57c4.143 0 7.502-3.358 7.502-7.502s-3.359-7.502-7.502-7.502h-7.57a1.2 1.2 0 0 1-1.199-1.199v-21.435a1.2 1.2 0 0 1 1.199-1.199h86.94a1.2 1.2 0 0 1 1.199 1.199v21.435a1.2 1.2 0 0 1-1.199 1.199h-44.297a7.502 7.502 0 0 0 0 15.004h44.297c8.935 0 16.204-7.269 16.204-16.203v-21.435c0-8.935-7.269-16.203-16.204-16.203h-86.94c-8.935 0-16.204 7.269-16.204 16.203v21.435c0 8.935 7.269 16.203 16.204 16.203zm0 79.513h86.94c8.935 0 16.204-7.269 16.204-16.203v-21.435c0-8.935-7.269-16.203-16.204-16.203h-86.94c-8.935 0-16.204 7.269-16.204 16.203v21.435c0 8.934 7.269 16.203 16.204 16.203zm-1.199-37.639a1.2 1.2 0 0 1 1.199-1.199h86.94a1.2 1.2 0 0 1 1.199 1.199v21.435a1.2 1.2 0 0 1-1.199 1.199h-86.94a1.2 1.2 0 0 1-1.199-1.199z"/></g></g></svg>